<svg width="34" height="44" viewBox="0 0 34 44" fill="none" xmlns="http://www.w3.org/2000/svg">
<path d="M6.33274 43.5358H27.667C31.8259 43.5358 33.895 41.4264 33.895 37.2478V19.0069C33.895 16.4149 33.6139 15.2904 32.0067 13.6429L20.917 2.37321C19.3913 0.805499 18.145 0.464355 15.8753 0.464355H6.33274C2.19445 0.464355 0.104736 2.5935 0.104736 6.77293V37.2478C0.104736 41.4461 2.19445 43.5358 6.33274 43.5358ZM6.49302 40.3018C4.42388 40.3018 3.33874 39.1961 3.33874 37.1878V6.83293C3.33874 4.84436 4.42388 3.69836 6.51359 3.69836H15.433V15.3709C15.433 17.9021 16.7187 19.1475 19.2096 19.1475H30.661V37.1878C30.661 39.1961 29.5956 40.3018 27.5067 40.3018H6.49302ZM19.5713 16.1132C18.7879 16.1132 18.4656 15.7926 18.4656 14.9886V4.3215L30.037 16.1141L19.5713 16.1132Z" fill="black"/>
</svg>
