<svg width="50" height="50" viewBox="0 0 50 50" fill="none" xmlns="http://www.w3.org/2000/svg">
<rect width="50" height="50" rx="25" fill="#25D366"/>
<path d="M18.3599 25.4516C17.3917 24.2235 16.8031 22.7395 16.6665 21.1816C16.655 20.5388 16.7776 19.9006 17.0264 19.3077C17.2751 18.7149 17.6447 18.1804 18.1115 17.7383C18.2496 17.5808 18.4188 17.4537 18.6083 17.3647C18.7979 17.2758 19.0039 17.2271 19.2132 17.2216C19.4882 17.2216 19.7632 17.2216 20.0049 17.2366C20.2465 17.2516 20.5982 17.1399 20.9332 17.9449C21.2682 18.7499 22.0999 20.8033 22.2065 21.0099C22.272 21.1179 22.3093 21.2405 22.3151 21.3665C22.3209 21.4926 22.2951 21.6181 22.2399 21.7316C22.1362 21.98 21.9976 22.2124 21.8282 22.4216C21.6215 22.6616 21.3932 22.9599 21.2082 23.1433C21.0232 23.3266 20.7865 23.5733 21.0265 23.9866C21.65 25.0481 22.4273 26.0114 23.3332 26.8449C24.3127 27.7151 25.4361 28.4082 26.6532 28.8933C27.0665 29.0999 27.3082 29.0599 27.5482 28.7899C27.7882 28.5199 28.5799 27.5849 28.8549 27.1716C29.1299 26.7583 29.4065 26.8283 29.7849 26.9649C30.1632 27.1016 32.1932 28.1016 32.6049 28.3083C33.0165 28.5149 33.2932 28.6183 33.3965 28.7899C33.5097 29.4538 33.4262 30.1362 33.1565 30.7533C32.8523 31.2546 32.4477 31.6877 31.9682 32.0253C31.4886 32.3628 30.9445 32.5976 30.3699 32.7149C29.5015 32.863 28.6106 32.8059 27.7682 32.5483C26.969 32.3004 26.1835 32.0105 25.4149 31.6799C22.5632 30.2503 20.132 28.104 18.3599 25.4516ZM8.4082 41.6666L10.7515 33.1066C8.93576 29.9556 8.21023 26.2937 8.68743 22.6884C9.16463 19.0832 10.8179 15.7361 13.3909 13.1661C15.9639 10.596 19.313 8.94664 22.9188 8.47363C26.5246 8.00063 30.1857 8.73042 33.3345 10.5499C36.4833 12.3693 38.944 15.1767 40.3349 18.5369C41.7258 21.8971 41.9693 25.6223 41.0277 29.135C40.0861 32.6476 38.0119 35.7515 35.1267 37.9654C32.2415 40.1793 28.7065 41.3795 25.0699 41.3799C22.3089 41.3805 19.5918 40.6894 17.1665 39.3699L8.4082 41.6666ZM11.3332 24.8499C11.3291 27.4347 12.0566 29.9679 13.4315 32.1566L13.7649 32.6766L12.3782 37.7433L17.5765 36.3799L18.0765 36.6766C20.1926 37.93 22.6071 38.5909 25.0665 38.5899C27.7824 38.5899 30.4374 37.7846 32.6957 36.2759C34.9539 34.7672 36.7142 32.6227 37.7538 30.1137C38.7935 27.6046 39.0658 24.8436 38.5365 22.1798C38.0071 19.516 36.6998 17.0689 34.7798 15.148C32.8598 13.2271 30.4134 11.9186 27.7498 11.388C25.0863 10.8573 22.3252 11.1283 19.8156 12.1667C17.3061 13.2052 15.1608 14.9644 13.6509 17.2219C12.1411 19.4795 11.3345 22.134 11.3332 24.8499Z" fill="white"/>
</svg>
