<svg xmlns="http://www.w3.org/2000/svg" width="20" height="20" viewBox="0 0 20 20" fill="none">
  <path d="M14.1666 7.49984V5.83317C14.1666 3.49984 12.3333 1.6665 9.99998 1.6665C7.66665 1.6665 5.83331 3.49984 5.83331 5.83317V7.49984C4.41665 7.49984 3.33331 8.58317 3.33331 9.99984V15.8332C3.33331 17.2498 4.41665 18.3332 5.83331 18.3332H14.1666C15.5833 18.3332 16.6666 17.2498 16.6666 15.8332V9.99984C16.6666 8.58317 15.5833 7.49984 14.1666 7.49984ZM7.49998 5.83317C7.49998 4.4165 8.58331 3.33317 9.99998 3.33317C11.4166 3.33317 12.5 4.4165 12.5 5.83317V7.49984H7.49998V5.83317ZM10.9166 12.9165L10.8333 12.9998V14.1665C10.8333 14.6665 10.5 14.9998 9.99998 14.9998C9.49998 14.9998 9.16665 14.6665 9.16665 14.1665V12.9998C8.66665 12.4998 8.58331 11.7498 9.08331 11.2498C9.58331 10.7498 10.3333 10.6665 10.8333 11.1665C11.3333 11.5832 11.4166 12.4165 10.9166 12.9165Z" fill="black"/>
</svg>